<svg xmlns="http://www.w3.org/2000/svg" width="343.5" height="675"><path d="M229.42 4.576H60.766c-31.656 0-57.32 25.71-57.32 57.31v38.146h-3.4v31.88h3.4v15.8h-3.4v31.976h3.4v15.706h-3.4v31.88h3.4V617.66c0 31.6 25.664 57.313 57.32 57.313h225.4c31.656 0 57.32-25.71 57.32-57.31V61.886c0-31.6-25.664-57.31-57.32-57.31h-6.252V1.958c0-1.123-.916-2.058-2.05-2.058h-46.402c-1.128 0-2.044.935-2.044 2.057v2.616" fill="#414043"/><path d="M173.47 594.942V597c8.172 0 15.553 3.27 20.91 8.694 5.36 5.33 8.667 12.715 8.667 20.85 0 8.226-3.308 15.612-8.667 20.94-5.357 5.33-12.738 8.696-20.91 8.696-8.174 0-15.56-3.366-20.916-8.695-5.358-5.33-8.663-12.715-8.663-20.942 0-8.134 3.31-15.52 8.67-20.85C157.92 600.27 165.3 597 173.477 597v-4.12c-18.6 0-33.672 15.145-33.672 33.66 0 18.603 15.073 33.75 33.673 33.75 18.595 0 33.666-15.147 33.67-33.75-.003-18.51-15.075-33.66-33.67-33.66v2.057m-29.65-531.275h52.224c2.88 0 5.22 2.337 5.22 5.235 0 2.8-2.34 5.14-5.225 5.14H143.82c-2.884 0-5.22-2.34-5.22-5.14 0-2.9 2.337-5.24 5.222-5.24m25.165-34.59c5.127 0 9.284 4.113 9.284 9.255s-4.152 9.256-9.28 9.256-9.29-4.114-9.29-9.256 4.16-9.256 9.29-9.256M125.463 63.66c2.885 0 5.222 2.338 5.222 5.236 0 2.8-2.337 5.14-5.222 5.14-2.886 0-5.223-2.34-5.223-5.14 0-2.9 2.334-5.24 5.22-5.24" fill="#bebbbd"/></svg>