<svg xmlns="http://www.w3.org/2000/svg" width="719" height="935.901"><path d="M38.225 0h642.55C701.887 0 719 17.145 719 38.313v859.28c0 21.157-17.112 38.308-38.226 38.308H38.224C17.114 935.9 0 918.75 0 897.6V38.318C0 17.14 17.115 0 38.225 0" fill="#414043"/><path d="M357.634 875.405c11.046 0 20.002 8.97 20.002 20.047 0 11.07-8.956 20.04-20.002 20.04-11.045 0-19.998-8.97-19.998-20.04 0-11.076 8.953-20.047 19.998-20.047M359.5 38.01c2.565 0 4.644 2.084 4.644 4.65 0 2.578-2.08 4.657-4.645 4.657-2.57 0-4.65-2.08-4.65-4.657 0-2.566 2.08-4.65 4.642-4.65" fill="#bebbbd"/></svg>