<svg xmlns="http://www.w3.org/2000/svg" width="1296" height="745"><path d="M1164.22.826H129.546c-10.666 0-19.312 9.41-19.312 20.996v687.145h1073.3V21.822c0-11.587-8.65-20.996-19.316-20.996" fill="#414043"/><path d="M645.863 17.46c3.568 0 6.453 3.137 6.453 7.007 0 3.886-2.885 7.007-6.453 7.007-3.56 0-6.446-3.12-6.446-7.007 0-3.87 2.886-7.007 6.446-7.007" fill="#5b5b5f"/><path d="M1295.946 738.067v5.45c0 .815-2.248 1.484-5.022 1.484H5.017c-2.77 0-5.015-.66-5.015-1.48v-5.45h1295.944" fill="#bebbbd"/><path d="M.014 738.292H1295.95V708.97H.015v29.322z" fill="#d6d3d9"/><path d="M724.68 722.99H567.083c-1.622 0-2.95-1.436-2.95-3.194l.01-10.83H727.45v10.83c0 1.758-1.143 3.193-2.768 3.193" fill="#a1a0a1"/></svg>