<svg xmlns="http://www.w3.org/2000/svg" width="935.901" height="719"><path d="M0 680.775V38.225C0 17.113 17.145 0 38.313 0h859.28C918.75 0 935.9 17.112 935.9 38.226v642.55c0 21.11-17.15 38.224-38.305 38.224H38.315C17.142 719 0 701.885 0 680.775" fill="#414043"/><path d="M875.405 361.366c0-11.046 8.97-20.002 20.047-20.002 11.07 0 20.04 8.956 20.04 20.002 0 11.045-8.97 19.998-20.04 19.998-11.076 0-20.047-8.953-20.047-19.998M38.01 359.5c0-2.565 2.083-4.644 4.65-4.644 2.578 0 4.657 2.08 4.657 4.645 0 2.57-2.08 4.65-4.657 4.65-2.567 0-4.65-2.08-4.65-4.642" fill="#bebbbd"/></svg>