<?xml version="1.0" encoding="UTF-8" standalone="no"?>
<!-- Created with Inkscape (http://www.inkscape.org/) -->

<svg
   xmlns:dc="http://purl.org/dc/elements/1.1/"
   xmlns:cc="http://creativecommons.org/ns#"
   xmlns:rdf="http://www.w3.org/1999/02/22-rdf-syntax-ns#"
   xmlns:svg="http://www.w3.org/2000/svg"
   xmlns="http://www.w3.org/2000/svg"
   xmlns:sodipodi="http://sodipodi.sourceforge.net/DTD/sodipodi-0.dtd"
   xmlns:inkscape="http://www.inkscape.org/namespaces/inkscape"
   width="298.40305"
   height="120.87666"
   id="svg4542"
   version="1.1"
   inkscape:version="0.48.4 r9939"
   sodipodi:docname="New document 18">
  <defs
     id="defs4544" />
  <sodipodi:namedview
     id="base"
     pagecolor="#ffffff"
     bordercolor="#666666"
     borderopacity="1.0"
     inkscape:pageopacity="0.0"
     inkscape:pageshadow="2"
     inkscape:zoom="0.35"
     inkscape:cx="149.20152"
     inkscape:cy="60.438333"
     inkscape:document-units="px"
     inkscape:current-layer="layer1"
     showgrid="false"
     fit-margin-top="0"
     fit-margin-left="0"
     fit-margin-right="0"
     fit-margin-bottom="0"
     inkscape:window-width="497"
     inkscape:window-height="415"
     inkscape:window-x="811"
     inkscape:window-y="315"
     inkscape:window-maximized="0" />
  <metadata
     id="metadata4547">
    <rdf:RDF>
      <cc:Work
         rdf:about="">
        <dc:format>image/svg+xml</dc:format>
        <dc:type
           rdf:resource="http://purl.org/dc/dcmitype/StillImage" />
        <dc:title></dc:title>
      </cc:Work>
    </rdf:RDF>
  </metadata>
  <g
     inkscape:label="Layer 1"
     inkscape:groupmode="layer"
     id="layer1"
     transform="translate(-225.79848,-471.92385)">
    <g
       transform="translate(-120.71429,-121.86649)"
       id="g4510">
      <path
         inkscape:connector-curvature="0"
         id="path2987-9-4"
         d="m 592.00956,594.49955 0,0.4375 -4.5,15.34375 -2.75,0.4375 -0.3125,9.25 -5.0625,-8.4375 -0.90625,6.53125 3.375,10.71875 -7.0625,-9.125 1.875,5.375 4.59375,4.5625 -4.6875,1.65625 12.21875,15.5 -10.71875,-8.625 -5.375,-1.3125 0.625,-11.53125 -8.1875,2.125 2.53125,-4.4375 -8.28125,1.46875 4.8125,12.46875 -4.15625,-3.5625 -6.28125,0 24.96875,10.28125 -9.59375,3.25 -10.4375,-9.15625 -6.6875,1.25 8.03125,4.78125 -3.21875,5 -6.375,-3.75 1.90625,4.65625 -12.65625,2.71875 -0.46875,0 0.21875,0.0625 -0.21875,0.0312 0.46875,0 12.65625,2.71875 -1.90625,4.65625 6.375,-3.75 3.21875,5 -8.03125,4.78125 6.6875,1.25 10.4375,-9.15625 9.59375,3.25 -24.96875,10.3125 6.28125,-0.0312 4.15625,-3.5625 -4.8125,12.46875 8.28125,1.46875 -2.53125,-4.4375 8.1875,2.125 -0.625,-11.53125 5.375,-1.3125 10.71875,-8.625 -12.21875,15.5 4.6875,1.6875 -4.59375,4.5625 -1.875,5.34375 7.0625,-9.09375 -3.375,10.6875 0.90625,6.53125 5.0625,-8.4375 0.3125,9.28125 2.75,0.40625 4.5,15.375 0,0.4375 0.0625,-0.21875 0.0625,0.21875 0,-0.4375 4.5,-15.375 2.75,-0.40625 0.3125,-9.28125 5.0625,8.4375 0.90625,-6.53125 -3.375,-10.6875 7.0625,9.09375 -1.875,-5.34375 -4.59375,-4.5625 4.6875,-1.6875 -12.21875,-15.5 10.71875,8.625 5.375,1.3125 -0.625,11.53125 8.1875,-2.125 -2.53125,4.4375 8.28125,-1.46875 -4.8125,-12.46875 4.15625,3.5625 6.28125,0.0312 -24.96875,-10.3125 9.59375,-3.25 10.4375,9.15625 6.6875,-1.25 -8.03125,-4.78125 3.21875,-5 6.375,3.75 -1.90625,-4.65625 12.65625,-2.71875 0.46875,0 -0.21875,-0.0312 0.21875,-0.0625 -0.46875,0 -12.65625,-2.71875 1.90625,-4.65625 -6.375,3.75 -3.21875,-5 8.03125,-4.78125 -6.6875,-1.25 -10.4375,9.15625 -9.59375,-3.25 24.96875,-10.28125 -6.28125,0 -4.15625,3.5625 4.8125,-12.46875 -8.28125,-1.46875 2.53125,4.4375 -8.1875,-2.125 0.625,11.53125 -5.375,1.3125 -10.71875,8.625 12.21875,-15.5 -4.6875,-1.65625 4.59375,-4.5625 1.875,-5.375 -7.0625,9.125 3.375,-10.71875 -0.90625,-6.53125 -5.0625,8.4375 -0.3125,-9.25 -2.75,-0.4375 -4.5,-15.34375 0,-0.4375 -0.0625,0.21875 -0.0625,-0.21875 z"
         style="color:#000000;fill:#d7d1ba;fill-opacity:1;fill-rule:nonzero;stroke:none;stroke-width:1;marker:none;visibility:visible;display:inline;overflow:visible;enable-background:accumulate" />
      <text
         sodipodi:linespacing="125%"
         id="text4420"
         y="711.90936"
         x="334.83875"
         style="font-size:188.25506592px;font-style:normal;font-variant:normal;font-weight:normal;font-stretch:normal;line-height:125%;letter-spacing:0px;word-spacing:0px;fill:#000000;fill-opacity:1;stroke:none;font-family:Meera;-inkscape-font-specification:Meera"
         xml:space="preserve"><tspan
           style="font-size:188.25506592px;font-style:normal;font-variant:normal;font-weight:normal;font-stretch:normal;fill:#85b8ad;fill-opacity:1;font-family:Meera;-inkscape-font-specification:Meera"
           y="711.90936"
           x="334.83875"
           id="tspan4422"
           sodipodi:role="line">flake</tspan></text>
    </g>
  </g>
</svg>
