<?xml version="1.0" encoding="UTF-8" standalone="no"?>
<!-- Created with Inkscape (http://www.inkscape.org/) -->

<svg
   xmlns:dc="http://purl.org/dc/elements/1.1/"
   xmlns:cc="http://creativecommons.org/ns#"
   xmlns:rdf="http://www.w3.org/1999/02/22-rdf-syntax-ns#"
   xmlns:svg="http://www.w3.org/2000/svg"
   xmlns="http://www.w3.org/2000/svg"
   xmlns:sodipodi="http://sodipodi.sourceforge.net/DTD/sodipodi-0.dtd"
   xmlns:inkscape="http://www.inkscape.org/namespaces/inkscape"
   width="64px"
   height="64px"
   id="svg4901"
   version="1.1"
   inkscape:version="0.48.4 r9939"
   sodipodi:docname="logo.svg">
  <defs
     id="defs4903" />
  <sodipodi:namedview
     id="base"
     pagecolor="#ffffff"
     bordercolor="#666666"
     borderopacity="1.0"
     inkscape:pageopacity="0.0"
     inkscape:pageshadow="2"
     inkscape:zoom="9.6619513"
     inkscape:cx="36.574484"
     inkscape:cy="39.710775"
     inkscape:current-layer="layer1"
     showgrid="true"
     inkscape:document-units="px"
     inkscape:grid-bbox="true"
     inkscape:window-width="1920"
     inkscape:window-height="1028"
     inkscape:window-x="0"
     inkscape:window-y="0"
     inkscape:window-maximized="1" />
  <metadata
     id="metadata4906">
    <rdf:RDF>
      <cc:Work
         rdf:about="">
        <dc:format>image/svg+xml</dc:format>
        <dc:type
           rdf:resource="http://purl.org/dc/dcmitype/StillImage" />
        <dc:title></dc:title>
      </cc:Work>
    </rdf:RDF>
  </metadata>
  <g
     id="layer1"
     inkscape:label="Layer 1"
     inkscape:groupmode="layer">
    <path
       style="color:#000000;fill:#ffffff;fill-opacity:1;fill-rule:nonzero;stroke:none;stroke-width:1;marker:none;visibility:visible;display:inline;overflow:visible;enable-background:accumulate"
       d="M 30.71875 1.28125 C 13.76091 1.28125 0 15.04216 0 32 C 0 48.95784 13.76091 62.71875 30.71875 62.71875 C 47.67659 62.71875 61.40625 48.95784 61.40625 32 C 61.40625 15.04216 47.67659 1.28125 30.71875 1.28125 z M 30.71875 1.9375 C 47.317695 1.9375 60.75 15.401055 60.75 32 C 60.75 48.598945 47.317695 62.0625 30.71875 62.0625 C 14.119805 62.0625 0.65625 48.598945 0.65625 32 C 0.65625 15.401055 14.119805 1.9375 30.71875 1.9375 z "
       id="path3137-3-3-8-1-8-0-2" />
    <path
       inkscape:connector-curvature="0"
       style="color:#000000;fill:#ffffff;fill-opacity:1;fill-rule:nonzero;stroke:none;stroke-width:1;marker:none;visibility:visible;display:inline;overflow:visible;enable-background:accumulate"
       d="m 30.706251,4.6197741 c -15.122196,0 -27.3801604,12.2579779 -27.3801604,27.3801779 0,15.12218 12.2579644,27.38016 27.3801604,27.38016 6.9804,0 13.348998,-2.6138 18.184891,-6.91359 -1.368817,-1.21707 -2.619173,-2.56795 -3.721196,-4.03456 -3.858247,3.39984 -8.916643,5.46428 -14.463695,5.46428 -12.093541,0 -21.8962944,-9.80274 -21.8962944,-21.89629 0,-12.09357 9.8027534,-21.89631 21.8962944,-21.89631 5.546312,0 10.605639,2.06525 14.463695,5.46428 1.102023,-1.4666 2.352379,-2.81748 3.721196,-4.03456 C 44.055249,7.2335731 37.686651,4.6197741 30.706251,4.6197741 z M 52.612337,15.577732 c -1.411892,1.24462 -2.668243,2.66303 -3.721195,4.23041 2.341448,3.48533 3.711402,7.67714 3.711402,12.19181 0,4.5145 -1.370105,8.70653 -3.711402,12.19182 1.05262,1.56691 2.309829,2.98598 3.721195,4.23041 3.434081,-4.57492 5.474073,-10.26122 5.474073,-16.42223 0,-6.16103 -2.039992,-11.84733 -5.474073,-16.42222 z"
       id="path3139-3-0-2-0-0-7-6-7" />
    <rect
       style="color:#000000;fill:#ffffff;fill-opacity:1;fill-rule:nonzero;stroke:none;stroke-width:0.86934674000000001;marker:none;visibility:visible;display:inline;overflow:visible;enable-background:accumulate"
       id="rect4548-2"
       width="23.076651"
       height="5.7571659"
       x="40.923351"
       y="-34.400558"
       transform="scale(1,-1)" />
  </g>
</svg>
